<?xml version="1.0" encoding="UTF-8"?><svg id="Layer_1" xmlns="http://www.w3.org/2000/svg" xmlns:xlink="http://www.w3.org/1999/xlink" viewBox="0 0 1234.28 1000"><defs><style>.cls-1{fill:url(#linear-gradient);}.cls-2{fill:url(#linear-gradient-2);}</style><linearGradient id="linear-gradient" x1="388.12" y1="179.63" x2="388.12" y2="1166.86" gradientUnits="userSpaceOnUse"><stop offset="0" stop-color="#de6975"/><stop offset="1" stop-color="#7e42dd"/></linearGradient><linearGradient id="linear-gradient-2" x1="863.82" y1="191.77" x2="863.82" y2="859.4" xlink:href="#linear-gradient"/></defs><path class="cls-1" d="m569.89,751.7c-16.91,0-31.99-10.63-37.67-26.55-5.68-15.92-.74-33.7,12.34-44.41l72.09-58.99c-22.99-28.15-51.22-52.14-83.56-70.37,39.89-38.73,63.28-92.46,63.28-149.49,0-114.83-93.42-208.26-208.26-208.26s-208.26,93.42-208.26,208.26c0,57.04,23.39,110.76,63.28,149.49-91.58,51.62-150.21,149.37-150.21,257.21,0,25.77,11.12,49.92,32.16,69.84,16.97,16.06,40.63,29.76,70.34,40.69,51.33,18.9,119.76,29.31,192.68,29.31s141.35-10.41,192.68-29.31c29.71-10.94,53.38-24.63,70.34-40.69,21.04-19.92,32.16-44.07,32.16-69.84,0-19.36-1.9-38.4-5.53-56.9h-107.88Z"/><path class="cls-2" d="m902.52,201.25c-140.96,0-255.23,114.27-255.23,255.23,0,56.62,18.45,108.93,49.65,151.26l-127.05,103.97h329.11v-.04c1.17.02,2.34.04,3.52.04,140.96,0,255.23-114.27,255.23-255.23s-114.27-255.23-255.23-255.23Zm131.81,318.09h-256.88c-11.05,0-20-8.95-20-20s8.95-20,20-20h256.88c11.05,0,20,8.95,20,20s-8.95,20-20,20Zm0-103.1h-256.88c-11.05,0-20-8.95-20-20s8.95-20,20-20h256.88c11.05,0,20,8.95,20,20s-8.95,20-20,20Z"/></svg>