<svg width="800" height="800" viewBox="0 0 800 800" fill="none" xmlns="http://www.w3.org/2000/svg">
<g clip-path="url(#clip0_1549_375)">
<path d="M585.622 423.337C563.556 395.116 529.59 377.01 491.556 377.01C425.213 377.01 371.238 432.124 371.238 499.868C371.238 547.693 405.816 603.009 474.01 664.283C522.067 707.461 569.444 738.012 571.438 739.294C575.761 742.066 580.69 743.453 585.622 743.453C590.554 743.453 595.486 742.066 599.807 739.294C601.803 738.012 649.175 707.464 697.234 664.28C765.423 603.006 800.001 547.69 800.001 499.868C800.001 432.124 746.029 377.01 679.685 377.01C641.654 377.01 607.688 395.119 585.622 423.337Z" fill="#D9D7E6"/>
<path d="M359.197 600.698C337.568 566.088 326.597 532.167 326.597 499.868C326.597 407.51 400.598 332.366 491.556 332.366C525.745 332.366 558.343 342.931 585.622 362.233C612.897 342.931 645.492 332.366 679.685 332.366C693.834 332.366 707.569 334.19 720.682 337.603C732.154 310.009 737.945 283.717 737.945 258.831C737.945 147.289 649.296 56.5441 540.334 56.5441C467.149 56.5441 403.133 97.4707 368.978 158.149C334.823 97.4734 270.801 56.5441 197.611 56.5441C88.6465 56.5468 0 147.292 0 258.834C0 339.591 60.5818 434.984 180.067 542.368C266.333 619.9 351.219 674.648 354.791 676.943C359.114 679.717 364.049 681.104 368.978 681.104C373.91 681.104 378.844 679.717 383.168 676.943C384.253 676.245 392.9 670.664 406.78 661.099C387.359 640.466 371.426 620.256 359.197 600.698Z" fill="#D9D7E6"/>
</g>
<defs>
<clipPath id="clip0_1549_375">
<rect width="800" height="800" fill="white"/>
</clipPath>
</defs>
</svg>
