<svg width="278" height="98" viewBox="0 0 278 98" fill="none" xmlns="http://www.w3.org/2000/svg">
<path fill-rule="evenodd" clip-rule="evenodd" d="M211.212 64.4511H209.56C208.397 64.4511 207.724 63.4719 207.663 62.6152V29.6913C207.663 29.5077 207.54 29.3853 207.357 29.3853H202.583C202.4 29.3853 202.277 29.5077 202.277 29.6913V62.1256C202.277 65.369 203.501 67.0213 204.236 67.7557C204.97 68.49 206.072 68.9796 207.602 69.1632C208.214 69.2244 208.826 69.2856 209.499 69.2856H211.151C211.335 69.2856 211.457 69.1632 211.457 68.9796V64.757C211.457 64.5735 211.396 64.4511 211.212 64.4511ZM268.615 54.9044C268.615 49.0295 265.677 44.8069 260.537 44.8069C255.09 44.8069 251.847 48.9683 251.847 54.9044C251.847 60.7793 255.09 65.0018 260.537 65.0018C265.677 65.0018 268.615 60.8404 268.615 54.9044ZM274 29.6301V68.9184C274 69.102 273.878 69.2244 273.694 69.2244H269.472C269.288 69.2244 269.227 69.102 269.166 68.9184L268.615 66.6541C268.492 66.287 268.248 66.3482 268.064 66.5317C266.534 68.0617 262.801 69.7752 259.986 69.7752C251.724 69.7752 246.523 63.7167 246.523 54.9044C246.523 46.092 251.724 40.0336 259.986 40.0336C263.964 40.0336 267.391 42.4814 268.064 43.277C268.37 43.6442 268.615 43.3994 268.615 43.1546V29.6913C268.615 29.5077 268.737 29.3853 268.921 29.3853H273.755C273.939 29.3853 274 29.5077 274 29.6301ZM234.773 56.6791C234.773 56.4955 234.651 56.3731 234.467 56.3731H226.511C220.514 56.3731 219.413 58.7598 219.413 60.7181C219.413 62.7375 220.82 64.9406 225.349 64.9406C232.203 64.9406 234.589 60.8405 234.712 57.4134V56.6791H234.773ZM243.952 64.757V68.9796C243.952 69.1632 243.83 69.2856 243.646 69.2856H241.994C238.751 69.2856 236.854 68.49 235.997 66.6541C235.875 66.3482 235.63 66.4094 235.507 66.5317C234.161 67.9393 230.612 69.8364 225.41 69.8364C217.821 69.8364 214.088 66.1646 214.088 60.7793C214.088 55.8223 218.25 52.1505 226.573 52.1505H232.937C234.161 52.1505 234.834 51.049 234.834 50.2534C234.834 47.9279 234.283 44.8069 227.552 44.8069C222.656 44.8069 220.453 47.0712 220.453 49.9474C220.453 50.131 220.331 50.2534 220.147 50.2534H215.312C215.129 50.2534 215.006 50.131 215.006 49.9474C215.006 43.277 221.065 39.9724 227.491 39.9724C235.324 39.9724 240.158 43.3382 240.158 50.2534V62.554C240.158 63.4107 240.831 64.4511 242.055 64.4511H243.708C243.83 64.4511 243.952 64.5735 243.952 64.757ZM183.612 44.8681C187.468 44.8681 190.161 46.704 191.446 50.0086C191.507 50.1922 191.629 50.3146 191.813 50.3146H196.831C197.015 50.3146 197.198 50.2534 197.137 50.0086C195.607 43.7666 190.834 40.0336 183.674 40.0336C174.8 40.0336 169.66 46.0308 169.66 54.9044C169.66 63.7167 174.739 69.7752 183.674 69.7752C190.895 69.7752 195.546 66.1034 197.137 59.8001C197.198 59.5553 197.015 59.4941 196.831 59.4941H191.813C191.629 59.4941 191.507 59.6165 191.446 59.8001C190.222 63.1659 187.468 64.9406 183.612 64.9406C178.227 64.9406 174.984 60.7181 174.984 54.8432C175.045 49.0295 178.227 44.8681 183.612 44.8681ZM152.402 40.0336C148.608 40.0336 146.099 41.8083 144.997 43.4606C144.875 43.6442 144.447 43.7666 144.385 43.3994L143.835 40.8291C143.773 40.6455 143.712 40.5231 143.529 40.5231H139.306C139.122 40.5231 139 40.6455 139 40.8291V68.9184C139 69.102 139.122 69.2244 139.306 69.2244H144.141C144.324 69.2244 144.447 69.102 144.447 68.9184V53.3744C144.447 48.9683 147.139 44.8069 151.913 44.8069C157.543 44.8069 159.44 49.0295 159.44 53.3744V68.9796C159.44 69.1632 159.562 69.2856 159.746 69.2856H164.58C164.764 69.2856 164.886 69.1632 164.886 68.9796V53.3744C164.764 46.0308 160.603 40.0336 152.402 40.0336ZM128.535 54.9044C128.535 49.0295 125.292 44.8069 119.845 44.8069C114.46 44.8069 111.156 48.9683 111.156 54.9044C111.156 60.7793 114.46 65.0018 119.845 65.0018C125.353 65.0018 128.535 60.8404 128.535 54.9044ZM133.921 54.9044C133.921 63.7167 128.719 69.7752 119.845 69.7752C110.972 69.7752 105.77 63.7167 105.77 54.9044C105.77 46.0308 110.911 40.0336 119.845 40.0336C128.719 40.0336 133.921 46.092 133.921 54.9044ZM103.69 40.0336H100.813C97.9983 40.0336 95.8564 41.5635 93.9593 43.4606C93.7757 43.6442 93.4697 43.7666 93.3473 43.3994L92.7965 40.8291C92.7353 40.6455 92.6741 40.5231 92.4906 40.5231H88.268C88.0844 40.5231 87.962 40.6455 87.962 40.8291V68.9184C87.962 69.102 88.0844 69.2244 88.268 69.2244H93.1025C93.2861 69.2244 93.4085 69.102 93.4085 68.9184V53.3744C93.4085 48.9683 96.1012 44.8069 100.875 44.8069H103.751C103.934 44.8069 104.057 44.6845 104.057 44.5009V40.2783C103.996 40.156 103.873 40.0336 103.69 40.0336ZM80.4348 29.6301V68.9184C80.4348 69.102 80.3124 69.2244 80.1288 69.2244H75.2943C75.1107 69.2244 74.9883 69.102 74.9883 68.9184V29.6301C74.9883 29.4465 75.1107 29.3241 75.2943 29.3241H80.1288C80.3124 29.3853 80.4348 29.5077 80.4348 29.6301Z" fill="#D9D7E6"/>
<path fill-rule="evenodd" clip-rule="evenodd" d="M48.6124 24C48.7348 24 48.8572 24.1224 48.8572 24.2448V29.0793C48.8572 29.2017 48.7348 29.3241 48.6124 29.3241H29.1519V69.2856H48.6124C48.7348 69.2856 48.8572 69.3468 48.8572 69.4692V69.5304V74.3649C48.8572 74.4873 48.796 74.6097 48.6736 74.6097H48.6124H4.24479C4.12239 74.6097 4 74.5485 4 74.4261V74.3649V69.5304C4 69.408 4.0612 69.2856 4.18359 69.2856H4.24479H23.7053V29.3241H4.24479C4.12239 29.3241 4 29.2629 4 29.1405V29.0793V24.2448C4 24.1224 4.12239 24 4.24479 24H48.6124ZM17.4633 35.3826C17.5857 35.3826 17.7081 35.4438 17.7081 35.5662V35.6274V63.0435C17.7081 63.1659 17.6469 63.2883 17.5245 63.2883H17.4633H4.24479C4.12239 63.2883 4 63.2271 4 63.1047V63.0435V58.209C4 58.0866 4.0612 57.9642 4.18359 57.9642H4.24479H12.3228V40.8291H4.24479C4.12239 40.8291 4 40.7679 4 40.6455V40.5843V35.6274C4 35.505 4.0612 35.3826 4.18359 35.3826H4.24479H17.4633ZM48.6124 35.3826C48.7348 35.3826 48.8572 35.4438 48.8572 35.5662V35.6274V40.4619C48.8572 40.5843 48.796 40.7067 48.6736 40.7067H48.6124H40.5344V57.8418H48.6124C48.7348 57.8418 48.8572 57.903 48.8572 58.0254V58.0866V62.9211C48.8572 63.0435 48.796 63.1659 48.6736 63.1659H48.6124H35.3939C35.2715 63.1659 35.1491 63.1047 35.1491 62.9823V62.9211V35.6274C35.1491 35.505 35.2103 35.3826 35.3327 35.3826H35.3939H48.6124Z" fill="#D9D7E6"/>
</svg>
