<svg width="278" height="98" viewBox="0 0 278 98" fill="none" xmlns="http://www.w3.org/2000/svg">
<path d="M85.2569 10H10.7329C10.2733 10 9.83249 10.1824 9.50764 10.5076C9.18244 10.8325 9 11.2733 9 11.7332V86.2572C9 86.7168 9.18244 87.1576 9.50764 87.4825C9.83249 87.8077 10.2733 87.9901 10.7329 87.9901H85.2569C85.7168 87.9901 86.1576 87.8077 86.4825 87.4825C86.8077 87.1576 86.9901 86.7168 86.9901 86.2572V11.7332C86.9901 11.2733 86.8077 10.8325 86.4825 10.5076C86.1576 10.1824 85.7168 10 85.2569 10ZM60.9933 60.2604C60.9933 60.72 60.8108 61.1608 60.4856 61.486C60.1608 61.8109 59.72 61.9937 59.2604 61.9937H36.7297C36.2701 61.9937 35.8293 61.8109 35.5041 61.486C35.1793 61.1608 34.9968 60.72 34.9968 60.2604V37.7297C34.9968 37.2701 35.1793 36.8293 35.5041 36.5045C35.8293 36.1793 36.2701 35.9968 36.7297 35.9968H59.2604C59.72 35.9968 60.1608 36.1793 60.4856 36.5045C60.8108 36.8293 60.9933 37.2701 60.9933 37.7297V60.2604Z" fill="#D9D7E6"/>
<path d="M241.281 35.9999H218.751C217.794 35.9999 217.018 36.7756 217.018 37.7328V60.2635C217.018 61.2206 217.794 61.9967 218.751 61.9967H241.281C242.238 61.9967 243.014 61.2206 243.014 60.2635V37.7328C243.014 36.7756 242.238 35.9999 241.281 35.9999Z" fill="#D9D7E6"/>
<path d="M215.273 10.002H192.743C191.786 10.002 191.01 10.7778 191.01 11.7353V34.2656C191.01 35.2228 191.786 35.9989 192.743 35.9989H215.273C216.231 35.9989 217.007 35.2228 217.007 34.2656V11.7353C217.007 10.7778 216.231 10.002 215.273 10.002Z" fill="#D9D7E6"/>
<path d="M267.268 10.002H244.737C243.78 10.002 243.004 10.7778 243.004 11.7353V34.2656C243.004 35.2228 243.78 35.9989 244.737 35.9989H267.268C268.225 35.9989 269.001 35.2228 269.001 34.2656V11.7353C269.001 10.7778 268.225 10.002 267.268 10.002Z" fill="#D9D7E6"/>
<path d="M215.273 61.995H192.743C191.786 61.995 191.01 62.7708 191.01 63.7279V86.2586C191.01 87.2158 191.786 87.9919 192.743 87.9919H215.273C216.231 87.9919 217.007 87.2158 217.007 86.2586V63.7279C217.007 62.7708 216.231 61.995 215.273 61.995Z" fill="#D9D7E6"/>
<path d="M267.268 61.995H244.737C243.78 61.995 243.004 62.7708 243.004 63.7279V86.2586C243.004 87.2158 243.78 87.9919 244.737 87.9919H267.268C268.225 87.9919 269.001 87.2158 269.001 86.2586V63.7279C269.001 62.7708 268.225 61.995 267.268 61.995Z" fill="#D9D7E6"/>
<path d="M176.486 10H153.956C152.999 10 152.223 10.7757 152.223 11.7332V34.2636C152.223 35.2207 152.999 35.9968 153.956 35.9968H176.486C177.443 35.9968 178.219 35.2207 178.219 34.2636V11.7332C178.219 10.7757 177.443 10 176.486 10Z" fill="#D9D7E6"/>
<path d="M176.246 61.995H153.716C152.759 61.995 151.982 62.7708 151.982 63.7279V86.2586C151.982 87.2158 152.759 87.9919 153.716 87.9919H176.246C177.203 87.9919 177.979 87.2158 177.979 86.2586V63.7279C177.979 62.7708 177.203 61.995 176.246 61.995Z" fill="#D9D7E6"/>
<path d="M145.722 37.7102C145.722 37.2506 145.539 36.8098 145.215 36.485C144.889 36.1598 144.449 35.9773 143.989 35.9773H119.725V11.7332C119.725 11.2733 119.543 10.8325 119.218 10.5076C118.892 10.1824 118.452 10 117.992 10H95.4618C95.0018 10 94.561 10.1824 94.2362 10.5076C93.911 10.8325 93.7285 11.2733 93.7285 11.7332V86.2182C93.7285 86.6778 93.911 87.1186 94.2362 87.4435C94.561 87.7687 95.0018 87.9511 95.4618 87.9511H117.992C118.452 87.9511 118.892 87.7687 119.218 87.4435C119.543 87.1186 119.725 86.6778 119.725 86.2182V61.9741H143.989C144.449 61.9741 144.889 61.7913 145.215 61.4665C145.539 61.1413 145.722 60.7005 145.722 60.2409V37.7102Z" fill="#D9D7E6"/>
</svg>
