<svg width="278" height="98" viewBox="0 0 278 98" fill="none" xmlns="http://www.w3.org/2000/svg">
<path d="M212.865 25.8811L202.852 45.647L192.834 25.8811H178.11L202.852 74.7106L227.578 25.8811H212.865ZM131.486 43.1402C131.486 41.6556 130.958 40.5466 129.908 39.8309C128.862 39.1078 127.434 38.749 125.645 38.749H118.943V47.7411H125.577C127.415 47.7411 128.862 47.3471 129.908 46.5593C130.958 45.7709 131.486 44.6721 131.486 43.273V43.1402ZM168.419 23L193.156 71.8289H178.431L168.419 52.061L158.415 71.8289H148.421H143.698H130.894L122.224 58.7013H122.1H118.943V71.8289H103.579V25.8811H126.038C130.151 25.8811 133.532 26.3526 136.177 27.2932C138.831 28.2324 140.959 29.5157 142.58 31.1351C143.983 32.5315 145.032 34.1111 145.736 35.8551C146.432 37.6063 146.785 39.6699 146.785 42.0233V42.1626C146.785 45.5293 145.975 48.3746 144.352 50.6922C142.736 53.0111 140.527 54.8553 137.72 56.2073L145.705 67.8644L168.419 23ZM237.265 23L212.532 71.8289H227.256L237.265 52.061L247.28 71.8289H262L237.265 23ZM58.9992 38.8708H72.5241V71.8289H87.8913V38.8708H101.42V25.8811H58.9992V38.8708ZM58.4458 51.0854C59.3845 52.7041 59.8557 54.6769 59.8557 56.9918V57.1264C59.8557 59.5308 59.3778 61.7016 58.4101 63.6245C57.4493 65.5523 56.0893 67.1803 54.3399 68.5176C52.5866 69.8493 50.4623 70.8775 47.9697 71.6005C45.4778 72.3271 42.6715 72.6894 39.5688 72.6894C34.888 72.6894 30.5181 72.0384 26.4688 70.7509C22.4202 69.4568 18.9316 67.5197 16 64.9435L24.2051 55.1664C26.6977 57.088 29.3291 58.4683 32.0815 59.2984C34.838 60.1306 37.5764 60.5462 40.2898 60.5462C41.6931 60.5462 42.6963 60.3697 43.3104 60.0236C43.9285 59.6721 44.2281 59.1895 44.2281 58.5793V58.4495C44.2281 57.7869 43.7743 57.2334 42.8821 56.8032C41.9901 56.3656 40.3081 55.909 37.8586 55.4282C35.277 54.8997 32.8134 54.2844 30.475 53.5861C28.1325 52.8911 26.0762 51.9903 24.3047 50.8942C22.5305 49.8028 21.1206 48.419 20.0669 46.7579C19.0171 45.0935 18.4926 43.0568 18.4926 40.6524V40.5197C18.4926 38.3294 18.9175 36.2927 19.7747 34.4127C20.6203 32.5315 21.87 30.8872 23.5122 29.4909C25.1552 28.0897 27.194 26.9976 29.6252 26.2043C32.0458 25.4173 34.838 25.0241 37.9939 25.0241C42.4539 25.0241 46.3598 25.5505 49.7089 26.6044C53.058 27.6465 56.0643 29.2249 58.7381 31.3242L51.2549 41.7001C49.0665 40.1198 46.7564 38.9719 44.3284 38.2479C41.893 37.5241 39.6152 37.162 37.4661 37.162C36.3302 37.162 35.4878 37.3369 34.9418 37.6884C34.385 38.0386 34.1203 38.5004 34.1203 39.0667V39.1973C34.1203 39.8147 34.531 40.3399 35.3666 40.779C36.2023 41.2138 37.8195 41.6751 40.2226 42.1572C43.1568 42.6783 45.8246 43.3154 48.2378 44.0547C50.6407 44.8067 52.7145 45.754 54.4396 46.9168C56.1681 48.0771 57.5065 49.46 58.4458 51.0854Z" fill="#D9D7E6"/>
</svg>
